<?xml version="1.0" encoding="utf-8"?>
<!-- Generator: Adobe Illustrator 26.1.0, SVG Export Plug-In . SVG Version: 6.00 Build 0)  -->
<svg version="1.1" id="Layer_1" xmlns="http://www.w3.org/2000/svg" xmlns:xlink="http://www.w3.org/1999/xlink" x="0px" y="0px"
	 viewBox="0 0 512 512" style="enable-background:new 0 0 512 512;" xml:space="preserve">
<style type="text/css">
	.st0{clip-path:url(#SVGID_00000173856221733055408030000001135002360623963317_);}
	.st1{fill:#44195E;}
	.st2{fill:#FC6601;}
</style>
<g>
	<g>
		<defs>
			<rect id="SVGID_1_" x="143.4" y="46.9" width="219.8" height="316.1"/>
		</defs>
		<clipPath id="SVGID_00000162349491790671078420000013953432360969231291_">
			<use xlink:href="#SVGID_1_"  style="overflow:visible;"/>
		</clipPath>
		<g style="clip-path:url(#SVGID_00000162349491790671078420000013953432360969231291_);">
			<path class="st1" d="M363.2,161.4c0,2.4,0,4.8-0.1,7.2c-0.1,2.4-0.3,4.8-0.5,7.2c-0.2,2.4-0.6,4.8-0.9,7.1
				c-0.4,2.4-0.9,4.7-1.4,7.1c-0.5,2.3-1.1,4.7-1.8,7c-0.7,2.3-1.4,4.6-2.2,6.9c-0.8,2.3-1.7,4.5-2.7,6.7c-1,2.2-2,4.4-3.1,6.5
				c-1.1,2.1-2.2,4.2-3.5,6.3c-1.2,2.1-2.5,4.1-3.8,6.1c-1.3,2-2.7,3.9-4.2,5.8c-1.5,1.9-3,3.8-4.6,5.6c-1.6,1.8-3.2,3.6-4.9,5.3
				s-3.4,3.4-5.2,5s-3.6,3.2-5.5,4.6c-1.9,1.5-3.8,2.9-5.8,4.3c-2,1.4-4,2.7-6,3.9c-2.1,1.2-4.1,2.4-6.3,3.5
				c-2.1,1.1-4.3,2.2-6.5,3.2c-2.2,1-4.4,1.9-6.7,2.8s-4.5,1.6-6.8,2.3c-2.3,0.7-4.6,1.4-6.9,1.9c-2.3,0.6-4.7,1.1-7,1.5
				c-2.4,0.4-4.7,0.8-7.1,1.1c-2.4,0.3-4.8,0.5-7.2,0.6c-2.4,0.1-4.8,0.2-7.2,0.2c-2.4,0-4.8-0.1-7.2-0.3c-2.4-0.2-4.8-0.4-7.2-0.7
				c-2.4-0.3-4.8-0.7-7.1-1.2c-2.4-0.5-4.7-1-7-1.6c-2.3-0.6-4.6-1.3-6.9-2c-2.3-0.7-4.5-1.6-6.8-2.4V333c0,2-0.2,3.9-0.6,5.8
				c-0.4,1.9-0.9,3.8-1.7,5.6c-0.7,1.8-1.7,3.5-2.8,5.2c-1.1,1.6-2.3,3.2-3.7,4.5c-1.4,1.4-2.9,2.6-4.5,3.7c-1.6,1.1-3.4,2-5.2,2.8
				c-1.8,0.8-3.7,1.3-5.6,1.7c-1.9,0.4-3.9,0.6-5.8,0.6c-2,0-3.9-0.2-5.8-0.6c-1.9-0.4-3.8-1-5.6-1.7c-1.8-0.7-3.5-1.7-5.2-2.8
				c-1.6-1.1-3.2-2.3-4.5-3.7c-1.4-1.4-2.6-2.9-3.7-4.5s-2-3.4-2.8-5.2c-0.8-1.8-1.3-3.7-1.7-5.6c-0.4-1.9-0.6-3.9-0.6-5.8V218.6
				c0-2,0.2-3.9,0.6-5.8c0.4-1.9,1-3.8,1.7-5.6c0.8-1.8,1.7-3.5,2.8-5.2c1.1-1.6,2.3-3.2,3.7-4.5s2.9-2.6,4.5-3.7
				c1.6-1.1,3.4-2,5.2-2.8c1.8-0.8,3.7-1.3,5.6-1.7c1.9-0.4,3.9-0.6,5.8-0.6c0.9,0,1.7,0.1,2.6,0.1c0.9-0.1,1.8-0.1,2.7-0.1
				c2.2,0,4.4,0.2,6.6,0.7c2.2,0.5,4.3,1.2,6.3,2.2c2,1,3.9,2.1,5.6,3.5c1.8,1.4,3.3,2.9,4.7,4.7c1.9,2.3,3.9,4.5,6.1,6.5
				c2.2,2,4.6,3.9,7,5.5c2.5,1.6,5.1,3.1,7.8,4.3c2.7,1.2,5.5,2.3,8.4,3c2.9,0.8,5.8,1.4,8.8,1.7c3,0.3,5.9,0.4,8.9,0.3
				c3-0.1,5.9-0.5,8.9-1.1c2.9-0.6,5.8-1.4,8.6-2.5c2.8-1.1,5.5-2.3,8.1-3.8c2.6-1.5,5.1-3.1,7.4-5c2.3-1.9,4.5-3.9,6.5-6.1
				c2-2.2,3.9-4.5,5.5-7c1.7-2.5,3.1-5.1,4.3-7.8c1.2-2.7,2.3-5.5,3.1-8.4c0.8-2.9,1.4-5.8,1.7-8.8c0.4-3,0.5-6,0.3-8.9
				c-1.2-30.1-25.9-54.3-56-54.8c-4.8-0.1-9.6,0.4-14.2,1.6c-4.7,1.1-9.1,2.8-13.4,5.1c-4.2,2.3-8.2,5-11.7,8.2
				c-3.6,3.2-6.7,6.9-9.3,10.9c-1.3,2.1-2.9,3.9-4.7,5.6c-1.8,1.7-3.8,3.1-6,4.3c-2.2,1.2-4.4,2.1-6.8,2.7c-2.4,0.6-4.8,0.9-7.3,0.9
				H173c-23.6,0-37.7-26.2-24.8-46c1.7-2.6,3.5-5.1,5.4-7.6c1.9-2.5,3.9-4.8,5.9-7.1c2.1-2.3,4.2-4.5,6.5-6.7c2.3-2.1,4.6-4.2,7-6.1
				c2.4-1.9,4.9-3.8,7.5-5.5c2.6-1.7,5.2-3.4,7.9-4.9c2.7-1.5,5.4-3,8.3-4.3c2.8-1.3,5.7-2.5,8.6-3.6c2.9-1.1,5.8-2.1,8.8-2.9
				c3-0.9,6-1.6,9-2.2c3-0.6,6.1-1.1,9.2-1.5c3.1-0.4,6.2-0.6,9.3-0.8c3.1-0.1,6.2-0.1,9.3,0s6.2,0.4,9.3,0.7
				c3.1,0.4,6.1,0.9,9.2,1.5c3,0.6,6.1,1.3,9,2.2c3,0.9,5.9,1.8,8.8,2.9s5.8,2.3,8.6,3.6c2.8,1.3,5.6,2.7,8.3,4.3
				c2.7,1.5,5.3,3.2,7.9,4.9c2.6,1.7,5.1,3.6,7.5,5.5c2.4,1.9,4.8,4,7,6.1c2.3,2.1,4.4,4.3,6.5,6.6c2.1,2.3,4.1,4.7,6,7.1
				c1.9,2.5,3.7,5,5.4,7.6c1.7,2.6,3.3,5.3,4.8,8c1.5,2.7,2.9,5.5,4.1,8.3c1.3,2.8,2.4,5.7,3.4,8.6c1,2.9,1.9,5.9,2.8,8.9
				c0.8,3,1.5,6,2,9.1c0.6,3,1,6.1,1.3,9.2C362.9,155.2,363.1,158.3,363.2,161.4z"/>
		</g>
	</g>
	<g>
		<g transform="translate(80.839801, 261.907336)">
			<g>
				<path class="st2" d="M-64.2,202.2h-16.6V142H-58c9.3,0,16.2,1.7,20.6,5c4.4,3.4,6.7,8.3,6.7,14.7c0,4.3-1.2,8-3.5,11.1
					c-2.3,3.1-5.6,5.5-9.8,7.2c-4.2,1.7-9.3,2.5-15.2,2.5h-5V202.2z M-57.5,155.6h-6.7v13.1h5.9c3.5,0,6.2-0.5,8-1.6
					c1.8-1.1,2.8-2.8,2.8-5.3c0-2.1-0.8-3.7-2.4-4.7C-51.6,156.1-54.1,155.6-57.5,155.6z"/>
			</g>
		</g>
	</g>
	<g>
		<g transform="translate(112.579518, 261.907336)">
			<g>
				<path class="st2" d="M8.2,156.5H-19v8.2H6v14.5h-25v8.5H8.9l-1,14.5h-43.6V142H8.2V156.5z"/>
			</g>
		</g>
	</g>
	<g>
		<g transform="translate(142.149722, 261.907336)">
			<g>
				<path class="st2" d="M59.5,186.6l3.9,13.1c-1.4,1.1-3.2,1.9-5.5,2.6c-2.3,0.7-4.5,1-6.9,1c-4.5,0-8.2-0.8-11.1-2.5
					c-2.9-1.6-5.3-4-7.1-7l-5.6-9.4c-0.7-1.1-1.3-2-1.9-2.5c-0.6-0.6-1.4-1-2.3-1.1v21.5H6.4V142h20.4c9.3,0,16.1,1.8,20.6,5.3
					c4.4,3.5,6.7,8.3,6.7,14.6c0,4.4-1.3,8.1-3.8,11c-2.6,2.9-5.9,4.9-10.1,6.1c2.1,0.7,3.8,2,5.1,3.8l1.5,2.3
					c1.4,2.2,3.6,3.3,6.5,3.3c1.1,0,2.1-0.1,3.1-0.4C57.4,187.7,58.4,187.3,59.5,186.6z M26.6,155.6H23v12h4.4
					c3.7,0,6.2-0.5,7.6-1.5c1.5-1,2.2-2.5,2.2-4.6c0-2.3-1-3.8-3-4.6C32.3,156,29.7,155.6,26.6,155.6z"/>
			</g>
		</g>
	</g>
	<g>
		<g transform="translate(174.904209, 261.907336)">
			<g>
				<path class="st2" d="M44.6,202.2L71.1,142h14.1l25.6,60.2H93.7l-4.2-10.7H66.1l-4.4,10.7H44.6z M71.9,177.4h12L78,162.6
					L71.9,177.4z"/>
			</g>
		</g>
	</g>
	<g>
		<g transform="translate(208.393533, 261.907336)">
			<g>
				<path class="st2" d="M120.9,203c-7.6,0-13.5-1.6-17.7-4.8c-4.2-3.2-6.7-7.9-7.2-14.1l15.7-2.3c0.1,2.2,1,3.9,2.8,5.3
					c1.8,1.3,4.1,2,6.9,2c5.2,0,7.8-1.4,7.8-4.1c0-1.2-0.7-2.2-2.2-3c-1.4-0.8-3.8-1.5-7.1-2.3c-7-1.7-12.2-3.9-15.4-6.8
					c-3.3-2.8-4.9-6.8-4.8-12c0-3.9,1.1-7.3,3.1-10.3c2-3,4.8-5.3,8.5-7c3.7-1.7,7.9-2.5,12.9-2.5c6.1,0,11,1.5,15,4.6
					c3.9,3.1,6.2,7.2,6.7,12.5l-14.8,2.6c-0.3-1.6-1.1-3-2.6-4c-1.4-1.1-3.2-1.6-5.2-1.6c-1.9,0-3.5,0.4-4.6,1.1
					c-1.2,0.8-1.7,1.8-1.7,3.1c0,1.2,0.6,2.2,1.7,3.1c1.2,0.9,3.3,1.7,6.6,2.5c4.6,1.1,8.5,2.4,11.6,3.9c3.2,1.4,5.5,3.3,7.2,5.6
					c1.6,2.3,2.4,5.2,2.4,8.9c0,3.9-1.1,7.4-3.2,10.3c-2.1,3-5.1,5.3-8.9,6.9C130.4,202.2,125.9,203,120.9,203z"/>
			</g>
		</g>
	</g>
	<g>
		<g transform="translate(238.593597, 261.907336)">
			<g>
				<path class="st2" d="M172,203c-6.5,0.1-12.1-1.1-16.8-3.4c-4.7-2.4-8.3-5.8-10.7-10.3c-2.5-4.5-3.7-9.8-3.7-16.1
					c0-6.4,1.4-12,4.1-16.8c2.7-4.8,6.5-8.6,11.4-11.2c4.9-2.7,10.5-4,17-4c6,0,11.1,1.2,15.6,3.7c4.4,2.5,7.9,5.9,10.3,10.4
					c2.5,4.4,3.7,9.7,3.7,15.6c0,6.3-1.3,11.9-3.9,16.7c-2.6,4.8-6.2,8.6-10.8,11.3C183.5,201.6,178.1,202.9,172,203z M171.6,188.2
					c4.3,0,7.8-1.5,10.3-4.6c2.5-3.1,3.8-7.2,3.8-12.3c0-4.6-1.2-8.3-3.6-11.1c-2.4-2.8-5.6-4.2-9.7-4.2c-2.9,0-5.5,0.7-7.7,2.2
					c-2.2,1.4-3.9,3.4-5.1,5.9c-1.2,2.5-1.8,5.4-1.8,8.7c0,4.8,1.2,8.6,3.6,11.4C164,186.8,167.3,188.2,171.6,188.2z"/>
			</g>
		</g>
	</g>
	<g>
		<g transform="translate(274.84731, 261.907336)">
			<g>
				<path class="st2" d="M195.1,202.2V142h17v45.4h25.1l-1,14.8H195.1z"/>
			</g>
		</g>
	</g>
</g>
</svg>
